<?xml version="1.0" encoding="UTF-8" standalone="no" ?>
<!DOCTYPE svg PUBLIC "-//W3C//DTD SVG 1.1//EN" "http://www.w3.org/Graphics/SVG/1.1/DTD/svg11.dtd">
<svg xmlns="http://www.w3.org/2000/svg"
	xmlns:xlink="http://www.w3.org/1999/xlink" version="1.1" viewBox="0 0 750 210">
	<g transform="matrix(4 0 0 4 60 98)">
		<path style="stroke: none; stroke-width: 1; stroke-dasharray: none; stroke-linecap: butt; stroke-dashoffset: 0; stroke-linejoin: miter; stroke-miterlimit: 4; fill-rule: nonzero; opacity: 1;" vector-effect="non-scaling-stroke" transform=" translate(-15.46, 16.54)" d="M 22.87 -10.76 L 28.59 -10.76 Q 28.09 -5.47 24.69 -2.51 Q 21.28 0.45 15.62 0.45 L 15.62 0.45 Q 11.67 0.45 8.66 -1.42 Q 5.65 -3.29 4.02 -6.74 Q 2.38 -10.2 2.32 -14.76 L 2.32 -14.76 L 2.32 -17.85 Q 2.32 -22.53 3.97 -26.09 Q 5.63 -29.66 8.73 -31.59 Q 11.83 -33.52 15.9 -33.52 L 15.9 -33.52 Q 21.37 -33.52 24.71 -30.55 Q 28.05 -27.57 28.59 -22.14 L 28.59 -22.14 L 22.87 -22.14 Q 22.46 -25.71 20.79 -27.29 Q 19.12 -28.86 15.9 -28.86 L 15.9 -28.86 Q 12.15 -28.86 10.14 -26.13 Q 8.13 -23.39 8.08 -18.1 L 8.08 -18.1 L 8.08 -15.17 Q 8.08 -9.81 10 -6.99 Q 11.92 -4.18 15.62 -4.18 L 15.62 -4.18 Q 19.01 -4.18 20.71 -5.7 Q 22.41 -7.22 22.87 -10.76 L 22.87 -10.76 Z" stroke-linecap="round" />
	</g>
	<g transform="matrix(4 0 0 4 160 115)">
		<path style="stroke: none; stroke-width: 1; stroke-dasharray: none; stroke-linecap: butt; stroke-dashoffset: 0; stroke-linejoin: miter; stroke-miterlimit: 4; fill-rule: nonzero; opacity: 1;" vector-effect="non-scaling-stroke" transform=" translate(-9.27, 12.52)" d="M 15.72 -24.71 L 15.69 -19.53 Q 14.6 -19.71 13.44 -19.71 L 13.44 -19.71 Q 9.65 -19.71 8.33 -16.81 L 8.33 -16.81 L 8.33 0 L 2.82 0 L 2.82 -24.57 L 8.08 -24.57 L 8.22 -21.82 Q 10.22 -25.03 13.76 -25.03 L 13.76 -25.03 Q 14.94 -25.03 15.72 -24.71 L 15.72 -24.71 Z" stroke-linecap="round" />
	</g>
	<g transform="matrix(4 0 0 4 240 138)">
		<path style="stroke: none; stroke-width: 1; stroke-dasharray: none; stroke-linecap: butt; stroke-dashoffset: 0; stroke-linejoin: miter; stroke-miterlimit: 4; fill-rule: nonzero; opacity: 1;" vector-effect="non-scaling-stroke" transform=" translate(-11.29, 7.32)" d="M 6.22 -24.57 L 11.42 -7.9 L 16.42 -24.57 L 22.3 -24.57 L 12.54 3.72 Q 10.29 9.92 4.91 9.92 L 4.91 9.92 Q 3.7 9.92 2.25 9.52 L 2.25 9.52 L 2.25 5.25 L 3.29 5.31 Q 5.38 5.31 6.44 4.55 Q 7.49 3.79 8.11 2 L 8.11 2 L 8.9 -0.11 L 0.27 -24.57 L 6.22 -24.57 Z" stroke-linecap="round" />
	</g>
	<g transform="matrix(1 0 0 1 340 115)">
		<path style="stroke: none; stroke-width: 1; stroke-dasharray: none; stroke-linecap: butt; stroke-dashoffset: 0; stroke-linejoin: miter; stroke-miterlimit: 4; fill-rule: nonzero; opacity: 1;" vector-effect="non-scaling-stroke" transform=" translate(-49.97, -49.98)" d="M 45.24 54.76 L 45.24 13.759999999999998 C 45.24557672787894 12.028055520977027 43.85187499438184 10.616485816537653 42.120000000000005 10.599999999999998 L 41.89000000000001 10.599999999999998 C 18.598843598420192 12.32927580681191 0.6639828877703877 31.8657865403158 0.9284649547913872 55.21955305826964 C 1.1929470218123868 78.57331957622347 19.565654133747074 97.69864607617599 42.89 98.89999999999998 Q 44.050000000000004 98.96 45.21000000000001 98.96 C 55.79597932846302 98.99635061369611 66.04101236524733 95.21924903672503 74.07 88.32 C 74.72309658636769 87.7443826955073 75.10791013240157 86.9234618235216 75.13255656298529 86.05325323598868 C 75.15720299356902 85.18304464845576 74.8194700103278 84.3416594956845 74.19999999999999 83.72999999999999 Z M 45.24 88.69 C 44.65 88.69 44.04 88.69 43.45 88.69 C 27.085902659314822 87.81373762015082 13.68334040856264 75.37329047076511 11.592744953818283 59.119646935287875 C 9.502149499073923 42.86600339981064 19.320290235452866 27.438835395196115 34.92999999999998 22.450000000000017 L 34.93000000000001 54.76 C 34.92483560329118 57.49145963233477 36.003799090129604 60.11334090535215 37.93000000000001 62.05 L 60.81 84.91 C 55.99604590920512 87.3945373991056 50.65729449566278 88.69065045904074 45.239999999999995 88.69 Z M 93.5 56.56 C 93.00157780874095 64.27216130407713 90.47654669603712 71.71617379207558 86.18 78.14 C 85.73160783556744 78.79851354078741 85.01528242927517 79.22538709840362 84.22273202271955 79.30637765089836 C 83.43018161616392 79.38736820339308 82.64231983192548 79.11420720539316 82.07000000000001 78.56 L 58.07000000000001 55.56 C 57.74696488463965 55.252912834805535 57.64343681458896 54.78009206294787 57.808588295110866 54.366112351772955 C 57.97373977563278 53.95213264059803 58.3742937671928 53.6804084358723 58.82000000000001 53.68 L 90.79 53.68 C 91.53918436803644 53.678524383229856 92.2555544254313 53.98725745446618 92.76896084315501 54.532870178836774 C 93.28236726087873 55.078482903207366 93.54699834974456 55.81228979552484 93.5 56.56 Z M 99 42.49 C 99.04137352260084 43.18658760226937 98.79319990014584 43.86933243404709 98.31417476597147 44.37675826787606 C 97.83514963179711 44.88418410170503 97.1678141221034 45.17122759963426 96.47 45.17 L 56.22 45.17 C 55.854001244021426 45.17 55.50299284422085 45.02460756029573 55.24419264196256 44.765807358037435 C 54.98539243970427 44.50700715577915 54.839999999999996 44.15599875597857 54.839999999999996 43.79 L 54.839999999999996 3.53 C 54.838933576495826 2.8340262139329235 55.12461738943078 2.1683490962982734 55.62981229792103 1.6896438084779266 C 56.135007206411274 1.2109385206575798 56.81509182041032 0.9614867543435355 57.51 1 C 79.83930149809069 2.3542715010255026 97.64572849897448 20.16069850190928 99 42.48999999999997 Z" stroke-linecap="round" />
	</g>
	<g transform="matrix(4 0 0 4 460 98)">
		<path style="stroke: none; stroke-width: 1; stroke-dasharray: none; stroke-linecap: butt; stroke-dashoffset: 0; stroke-linejoin: miter; stroke-miterlimit: 4; fill-rule: nonzero; opacity: 1;" vector-effect="non-scaling-stroke" transform=" translate(-14.04, 16.54)" d="M 20.64 -8.52 L 20.64 -8.52 Q 20.64 -10.7 19.11 -11.88 Q 17.58 -13.06 13.58 -14.26 Q 9.58 -15.47 7.22 -16.94 L 7.22 -16.94 Q 2.7 -19.78 2.7 -24.35 L 2.7 -24.35 Q 2.7 -28.34 5.96 -30.93 Q 9.22 -33.52 14.42 -33.52 L 14.42 -33.52 Q 17.87 -33.52 20.58 -32.25 Q 23.28 -30.98 24.82 -28.63 Q 26.37 -26.28 26.37 -23.41 L 26.37 -23.41 L 20.64 -23.41 Q 20.64 -26 19.02 -27.47 Q 17.4 -28.93 14.38 -28.93 L 14.38 -28.93 Q 11.56 -28.93 10 -27.73 Q 8.45 -26.53 8.45 -24.37 L 8.45 -24.37 Q 8.45 -22.55 10.13 -21.34 Q 11.81 -20.12 15.67 -18.97 Q 19.53 -17.83 21.87 -16.36 Q 24.21 -14.9 25.3 -13 Q 26.39 -11.11 26.39 -8.56 L 26.39 -8.56 Q 26.39 -4.43 23.22 -1.99 Q 20.05 0.45 14.63 0.45 L 14.63 0.45 Q 11.04 0.45 8.03 -0.87 Q 5.02 -2.2 3.35 -4.54 Q 1.68 -6.88 1.68 -9.99 L 1.68 -9.99 L 7.43 -9.99 Q 7.43 -7.18 9.29 -5.63 Q 11.15 -4.09 14.63 -4.09 L 14.63 -4.09 Q 17.62 -4.09 19.13 -5.3 Q 20.64 -6.52 20.64 -8.52 Z" stroke-linecap="round" />
	</g>
	<g transform="matrix(4 0 0 4 550 105)">
		<path style="stroke: none; stroke-width: 1; stroke-dasharray: none; stroke-linecap: butt; stroke-dashoffset: 0; stroke-linejoin: miter; stroke-miterlimit: 4; fill-rule: nonzero; opacity: 1;" vector-effect="non-scaling-stroke" transform=" translate(-7.2, 15.05)" d="M 4.22 -30.55 L 9.74 -30.55 L 9.74 -24.57 L 14.08 -24.57 L 14.08 -20.48 L 9.74 -20.48 L 9.74 -6.77 Q 9.74 -5.36 10.3 -4.74 Q 10.86 -4.11 12.29 -4.11 L 12.29 -4.11 Q 13.24 -4.11 14.22 -4.34 L 14.22 -4.34 L 14.22 -0.07 Q 12.33 0.45 10.58 0.45 L 10.58 0.45 Q 4.22 0.45 4.22 -6.56 L 4.22 -6.56 L 4.22 -20.48 L 0.18 -20.48 L 0.18 -24.57 L 4.22 -24.57 L 4.22 -30.55 Z" stroke-linecap="round" />
	</g>
	<g transform="matrix(4 0 0 4 630 116)">
		<path style="stroke: none; stroke-width: 1; stroke-dasharray: none; stroke-linecap: butt; stroke-dashoffset: 0; stroke-linejoin: miter; stroke-miterlimit: 4; fill-rule: nonzero; opacity: 1;" vector-effect="non-scaling-stroke" transform=" translate(-12.59, 12.29)" d="M 23.14 0 L 17.51 0 Q 17.15 -0.7 16.87 -2.29 L 16.87 -2.29 Q 14.24 0.45 10.42 0.45 L 10.42 0.45 Q 6.72 0.45 4.38 -1.66 Q 2.04 -3.77 2.04 -6.88 L 2.04 -6.88 Q 2.04 -10.81 4.96 -12.91 Q 7.88 -15.01 13.31 -15.01 L 13.31 -15.01 L 16.69 -15.01 L 16.69 -16.62 Q 16.69 -18.53 15.62 -19.68 Q 14.56 -20.83 12.38 -20.83 L 12.38 -20.83 Q 10.49 -20.83 9.29 -19.88 Q 8.08 -18.94 8.08 -17.49 L 8.08 -17.49 L 2.57 -17.49 Q 2.57 -19.51 3.91 -21.27 Q 5.25 -23.03 7.55 -24.03 Q 9.86 -25.03 12.69 -25.03 L 12.69 -25.03 Q 17.01 -25.03 19.58 -22.86 Q 22.14 -20.69 22.21 -16.76 L 22.21 -16.76 L 22.21 -5.68 Q 22.21 -2.36 23.14 -0.39 L 23.14 -0.39 L 23.14 0 Z M 11.45 -3.97 L 11.45 -3.97 Q 13.08 -3.97 14.52 -4.77 Q 15.97 -5.56 16.69 -6.9 L 16.69 -6.9 L 16.69 -11.54 L 13.72 -11.54 Q 10.65 -11.54 9.11 -10.47 Q 7.56 -9.4 7.56 -7.45 L 7.56 -7.45 Q 7.56 -5.86 8.62 -4.92 Q 9.67 -3.97 11.45 -3.97 Z" stroke-linecap="round" />
	</g>
	<g transform="matrix(4 0 0 4 710 105)">
		<path style="stroke: none; stroke-width: 1; stroke-dasharray: none; stroke-linecap: butt; stroke-dashoffset: 0; stroke-linejoin: miter; stroke-miterlimit: 4; fill-rule: nonzero; opacity: 1;" vector-effect="non-scaling-stroke" transform=" translate(-7.2, 15.05)" d="M 4.22 -30.55 L 9.74 -30.55 L 9.74 -24.57 L 14.08 -24.57 L 14.08 -20.48 L 9.74 -20.48 L 9.74 -6.77 Q 9.74 -5.36 10.3 -4.74 Q 10.86 -4.11 12.29 -4.11 L 12.29 -4.11 Q 13.24 -4.11 14.22 -4.34 L 14.22 -4.34 L 14.22 -0.07 Q 12.33 0.45 10.58 0.45 L 10.58 0.45 Q 4.22 0.45 4.22 -6.56 L 4.22 -6.56 L 4.22 -20.48 L 0.18 -20.48 L 0.18 -24.57 L 4.22 -24.57 L 4.22 -30.55 Z" stroke-linecap="round" />
	</g>
</svg>